<svg id="layer" xmlns="http://www.w3.org/2000/svg" viewBox="0 0 408.43 170.72"><defs><style>.cls-1{fill:#adadad;}.cls-2{fill:#fff;}</style></defs><path class="cls-1" d="M441.84,218.17c-.44,5.9,7.87,3.49,10.05,2.07,2.63-1.64,4.05-2.62,5.8-5.46,2.73-4.59-.11-7.43-2.41-7.65-1.31-.11-4.15.32-6.12,4a11.33,11.33,0,0,0-1.09,6.23c-3.39,2-3.39-1.64-3.39-3a26.53,26.53,0,0,1,.22-2.84c.33-2.63-.44-2-2.19-.44a108.18,108.18,0,0,1-20.65,13.44c-12.14,6.23-29.41,12.57-56.4,18.8-32.46,7.54-64.16,6-69.08-2.29s20.33-22.85,22-23.83-.33-1.64-1.42-1.09c0,0-30.05,16.28-24,28s36.83,11.36,69.4,4.59c54-11.26,76.18-31.26,78.69-32.79,1.42-.77.88.66.66,2.19" transform="translate(-171.3 -170.28)"/><path class="cls-1" d="M413.86,196.85a67.23,67.23,0,0,0-13.55,2.74c-2.19.65-3.5,1.63-3.61,2.4s.33.87,2.18.76c2.41-.21,14.21-2.4,21.21-2.4,8.41,0,13.33,1.09,15,3.28,2,2.51-5.35,11.91-32.68,21.2C373.31,234.78,350.9,238.6,321,240.9c-2,.11-2.95,1.09.65,1.75,5.47,1,33,1.53,69.41-10s50.38-24.37,46.56-31.15c-1.53-3.06-9.29-6.12-23.72-4.7" transform="translate(-171.3 -170.28)"/><path class="cls-1" d="M356,184.83c6-4,19.89-8,33.66-1.2,19.9,9.73,27.22,32.68,16.62,51.15-9.84,17.27-26,18.91-31.7,19.34A108.83,108.83,0,0,1,354,253c-2.29-.44-2.4,1.09-1,1.53,6.56,2,24.92,7,42.41-2.84,19.12-10.71,23.17-28.31,18.69-46.34-5-19.78-23.17-30.6-42.41-29.73-10.82.44-16.61,6.23-17.38,8.52-.54,1.32.33,1.64,1.75.66" transform="translate(-171.3 -170.28)"/><path class="cls-1" d="M347,191.39c1.75-1.86,2.51-2.52,3.28-3.39.54-.55-1.31-1.75-4.48.11s-11.59,11.48-13.56,22.51c-2.62,14.87,5.14,27.77,10.17,31.92,4.7,3.82,4.92,1.53,4,.76a38.7,38.7,0,0,1-9.4-18.14c-1.53-7.65-1.42-12.57,1.1-19.78,2.18-6.23,7.87-12.9,8.85-14" transform="translate(-171.3 -170.28)"/><path class="cls-1" d="M397.68,206.25c-14.75-8.19-33.33-13-43.83-14.75-2.84-.44-4.26,1.86-1.74,2.29,15.73,2.84,26.77,5.58,45.35,14a1.05,1.05,0,0,0,1.1-.22c.22-.32-.11-.87-.88-1.31" transform="translate(-171.3 -170.28)"/><path class="cls-1" d="M406.86,217.18c-21.31-11.15-49.07-15.74-60.77-16.94-2.62-.33-3.82,2.51-1.53,2.73,28.2,3.17,47.22,8.86,61.65,15.63.33.11.87.33,1.2-.11s.22-.87-.55-1.31" transform="translate(-171.3 -170.28)"/><path class="cls-1" d="M342.93,213.68A254.15,254.15,0,0,1,397.35,222c.55.11.88-.11,1-.44s-.22-.76-.88-1c-29.83-9.07-49.94-9.51-54.32-9.51-2.4-.22-3.49,2.52-.21,2.62" transform="translate(-171.3 -170.28)"/><path class="cls-1" d="M374.51,178.71l1-.44h0v-.87h-.22c-4.81,0-9.73,3.71-13.77,10.38-4.7,7.65-7.44,18.25-7.76,29.73-.77,25.68,7.1,47.76,16.39,48.09h.11a5.58,5.58,0,0,0,5.68-5c0-.33.11-1.42-.43-1.53s-.77.55-1.1,1.31c-.76,1.75-2.4,2.08-4,2-3.06-.11-6.67-4.48-9.18-13.66A105.88,105.88,0,0,1,357.24,216c1-24.26,10.82-37.6,17.27-37.27" transform="translate(-171.3 -170.28)"/><path class="cls-1" d="M394.08,256.64s-.11-1-.66-1h0c-.44,0-.55.66-.55,1.1-.22,1.53-.87,2.51-2,2.84a2.19,2.19,0,0,1-1.53-.44c-4.49-3.06-11.59-20.33-14.1-41.2-2.84-23.28,3.17-38.15,7.21-39.24l.66-.55h0l-.11-.32a7,7,0,0,1-.77.32h-.44l-.1-.32c-6.78,2.07-12,20.65-9,45,2.63,20.76,9.29,35.41,14.87,39a4.17,4.17,0,0,0,2.62.88,1.87,1.87,0,0,0,.77-.11c1.85-.77,3.38-2.95,3.06-6" transform="translate(-171.3 -170.28)"/><path class="cls-1" d="M391.45,222.87c-.11-.55-.22-.88-.76-3-2.19-8.74-4.37-22.62-2.41-32.68a5,5,0,0,1,.11-.54c.11-.66,0-1-.43-1s-.88.33-.88.88c0,.11-.11.22-.11.33-2.18,10.82-1.2,26.34,2,36.94.76,2.73,3.17,1.2,2.51-1" transform="translate(-171.3 -170.28)"/><path class="cls-1" d="M350,181.88a3.12,3.12,0,1,0-2.95,3.28,3.15,3.15,0,0,0,2.95-3.28" transform="translate(-171.3 -170.28)"/><path class="cls-1" d="M445.55,231.06a3.06,3.06,0,1,0-3.06,3.06,3,3,0,0,0,3.06-3.06" transform="translate(-171.3 -170.28)"/><path class="cls-1" d="M356.7,174.12a4.11,4.11,0,1,0-3.83,4.37,4.22,4.22,0,0,0,3.83-4.37" transform="translate(-171.3 -170.28)"/><path class="cls-1" d="M456.48,245.71c-.43-2.3-2.73-5.58-6.23-8.53-1.85-1.53-3.6-.54-2,.88s13.44,13.77-3.17,14.53c-5.36.22-16.07-.65-36.73-6.23-1.2-.32-2.51-.65-3.93-1.09-1.64-.44-3.28-1-5-1.53-2.51-.76-5.14-1.64-8-2.62-2.62-.88-5.24-1.86-8.09-3-1.53-.55-3.16-1.21-4.8-1.86a5.36,5.36,0,0,0-.77-.33c-1.42-.55-2.84-1.09-4.26-1.75a13.24,13.24,0,0,1-1.75-.76c-4.7-2-9.62-4.37-14.43-6.67-1.42-.66-2.84-1.42-4.26-2.08-6-3.06-11.91-6.34-17.27-9.72-1.53-1-2.95-1.86-4.37-2.85-2.84-2-7-4.91-9.51-7-18.8-15.52-.33-15.63,19.35-13.23,1.31.11,2.62.33,3.93.55l1.75-2.95c-1-.11-2.08-.33-3.06-.44-15-2.07-25.25-1.31-29.51,1.42-2.84,1.86-6.67,6.89,5.35,17.27A137,137,0,0,0,331,216.42c1.53,1.09,3.17,2.07,4.81,3.17,5.25,3.38,11.15,6.88,17.49,10.27,1.42.77,2.84,1.53,4.37,2.3,2,1,4,2,6.12,3s4.26,2,6.34,2.95c1.53.65,2.95,1.31,4.48,2,.11.11.33.11.44.22l3.93,1.64c1.31.55,2.63,1.1,3.94,1.53h0c3.71,1.42,7.54,2.74,11.26,4.05,1.63.54,3.27,1.09,5,1.53s3.5,1,5.25,1.42c23.39,6.23,36.5,7,44.05,5.24h.1c.66-.11,9.51-2,7.87-9.94" transform="translate(-171.3 -170.28)"/><path class="cls-2" d="M210.9,340.2h-4.4a.47.47,0,0,1-.5-.5V327c0-3.5.2-6.5.2-9.2,0-.3.2-1.1,0-1.1s-.4.5-.5.5c-.7,1.2-2.1,3.3-2.9,4.5l-11,15.6c-.2.3-.6.3-.7,0l-11.3-15.6c-.8-1.2-2.1-3.4-2.9-4.6-.2-.4-.2-.5-.4-.4s-.1.7-.1,1c.1,2.7.2,5.5.2,9.1v13a.54.54,0,0,1-.5.5h-4.3a.47.47,0,0,1-.5-.5V302.3c0-.4.6-.6.8-.3,3.4,4.8,16.4,23.2,18.8,26.7.2.3.6.3.7,0,2.4-3.5,15.4-21.8,18.8-26.7.3-.4.8-.2.8.3v37.5c.1.2-.1.4-.3.4" transform="translate(-171.3 -170.28)"/><path class="cls-2" d="M250.3,341c-10,0-15.6-5.9-15.6-16.5V303.1a.68.68,0,0,1,.7-.7h3.9a.68.68,0,0,1,.7.7v21.4c0,7.7,3.4,11.5,10.3,11.5s10.3-3.7,10.3-11.5V303.1a.68.68,0,0,1,.7-.7h3.9a.68.68,0,0,1,.7.7v21.4c0,10.5-5.7,16.5-15.6,16.5" transform="translate(-171.3 -170.28)"/><path class="cls-2" d="M312,320.1a.84.84,0,0,1-.1-1.4,8.56,8.56,0,0,0,3.6-6.7c0-5.6-4.6-9.5-11.1-9.5H292.3a.86.86,0,0,0-.8.8v36.2a.86.86,0,0,0,.8.8h13c7.7,0,12.6-4.4,12.6-11.3a10.13,10.13,0,0,0-5.9-8.9M296.8,308a.86.86,0,0,1,.8-.8h6c4.1,0,6.7,2.1,6.7,5.2s-2.9,5.4-6.7,5.4h-6a.86.86,0,0,1-.8-.8Zm8.2,27.5h-7.4a.86.86,0,0,1-.8-.8V322.9a.86.86,0,0,1,.8-.8h7.2c4.3,0,7.7,2.9,7.7,6.7,0,4-3,6.7-7.5,6.7" transform="translate(-171.3 -170.28)"/><path class="cls-2" d="M410.6,302.5h-14a.65.65,0,0,0-.6.6v36.5a.65.65,0,0,0,.6.6h14.3c10.9,0,19.2-8,19.2-18.7s-8.4-19-19.5-19m.3,32.7h-9a.65.65,0,0,1-.6-.6V308.1a.65.65,0,0,1,.6-.6h8.7c8.2,0,14.1,5.9,14.1,14.1,0,8.9-6.9,13.6-13.8,13.6" transform="translate(-171.3 -170.28)"/><path class="cls-2" d="M525.8,340.2H501.7a.47.47,0,0,1-.5-.5V303a.47.47,0,0,1,.5-.5h4.2a.47.47,0,0,1,.5.5v31.7a.47.47,0,0,0,.5.5h20.8a.53.53,0,0,1,.5.7l-1.9,4a.55.55,0,0,1-.5.3" transform="translate(-171.3 -170.28)"/><path class="cls-2" d="M375.3,340.2h-4.6a.52.52,0,0,1-.4-.2l-2.9-5.8a.52.52,0,0,0-.4-.2H350.5a.44.44,0,0,1-.4-.6l2-3.9a.52.52,0,0,1,.4-.2h11.7a.44.44,0,0,0,.4-.6l-8.4-17.1a.31.31,0,0,0-.1-.2.35.35,0,0,1-.1.2L342,340a.52.52,0,0,1-.4.2h-4.4a.44.44,0,0,1-.4-.6l19-38.1c.2-.3.6-.3.7,0l19.1,38a.44.44,0,0,1-.3.7" transform="translate(-171.3 -170.28)"/><path class="cls-2" d="M483.4,340.2h-4.6a.52.52,0,0,1-.4-.2l-2.9-5.8a.52.52,0,0,0-.4-.2H458.6a.44.44,0,0,1-.4-.6l2-3.9a.52.52,0,0,1,.4-.2h11.7a.44.44,0,0,0,.4-.6l-8.4-17.1a.31.31,0,0,0-.1-.2.35.35,0,0,1-.1.2l-14,28.4a.52.52,0,0,1-.4.2h-4.4a.44.44,0,0,1-.4-.6l19-38.1a.47.47,0,0,1,.8,0l19.1,38c.1.3-.1.7-.4.7" transform="translate(-171.3 -170.28)"/><path class="cls-2" d="M579.3,340.2h-4.6a.52.52,0,0,1-.4-.2l-2.9-5.8a.52.52,0,0,0-.4-.2H554.5a.44.44,0,0,1-.4-.6l2-3.9a.52.52,0,0,1,.4-.2h11.7a.44.44,0,0,0,.4-.6l-8.4-17.1a.31.31,0,0,0-.1-.2.35.35,0,0,1-.1.2L546,340a.52.52,0,0,1-.4.2h-4.4a.44.44,0,0,1-.4-.6l19-38.1a.47.47,0,0,1,.8,0l19.1,38c.1.3-.1.7-.4.7" transform="translate(-171.3 -170.28)"/></svg>