<?xml version="1.0" encoding="utf-8"?>
<!-- Generator: Adobe Illustrator 24.1.3, SVG Export Plug-In . SVG Version: 6.00 Build 0)  -->
<svg version="1.1" id="Layer_1" xmlns="http://www.w3.org/2000/svg" xmlns:xlink="http://www.w3.org/1999/xlink" x="0px" y="0px"
	 viewBox="0 0 367.9 225.9" style="enable-background:new 0 0 367.9 225.9;" xml:space="preserve">
<style type="text/css">
	.st0{display:none;}
	.st1{display:inline;fill:#FF1742;}
	.st2{display:inline;fill:#459DFF;}
	.st3{fill:none;stroke:#FFFFFF;stroke-width:1.0685;stroke-miterlimit:10;}
	.st4{fill:none;stroke:#FFFFFF;stroke-width:5.75;stroke-miterlimit:10;}
	.st5{fill:none;stroke:#FFFFFF;stroke-width:5.75;stroke-linecap:square;stroke-miterlimit:10;}
</style>
<g id="Ebene_1">
</g>
<g id="Ebene_3" class="st0">
	<rect x="132.8" y="111.8" class="st1" width="6.4" height="6.4"/>
	<rect x="266.4" y="125.9" class="st2" width="6.2" height="6.2"/>
</g>
<g id="Ebene_4">
</g>
<path class="st3" d="M34.9,165.3"/>
<path class="st4" d="M41,141.9V65v0h33.7c3.2,0,6.7,0.2,10.7,0.5c4,0.3,7.9,1.2,11.9,2.2c4,1.2,7.8,2.8,11.4,4.9
	c3.7,2.1,7,5.1,9.8,8.9c2.9,3.7,5.1,8.3,7,13.8c1.7,5.4,2.7,12,2.7,19.6c0,9.7-1.5,17.8-4.6,24.3c-3.1,6.4-7.2,11.6-12.1,15.4
	c-5,3.8-10.5,6.5-16.7,8.2c-6.1,1.6-12.2,2.5-18.3,2.5H37.9h3.5"/>
<line class="st5" x1="132.2" y1="35.9" x2="247" y2="193.9"/>
<line class="st4" x1="146.7" y1="171.1" x2="227.1" y2="58.6"/>
<path class="st4" d="M256.5,167.4v-37.8h31.2c26.3,0,41.1-11.9,41.1-32.7c0.1-20.3-14.7-31.9-41-31.9h-33.9"/>
</svg>
