<?xml version="1.0" encoding="utf-8"?>
<!-- Generator: Adobe Illustrator 24.1.2, SVG Export Plug-In . SVG Version: 6.00 Build 0)  -->
<svg version="1.1" id="Layer_1" xmlns="http://www.w3.org/2000/svg" xmlns:xlink="http://www.w3.org/1999/xlink" x="0px" y="0px"
	 viewBox="0 0 367.9 225.9" style="enable-background:new 0 0 367.9 225.9;" xml:space="preserve">
<style type="text/css">
	.st0{fill:#FFFFFF;}
	.st1{display:none;}
	.st2{display:inline;fill:#FF1742;}
	.st3{display:inline;fill:#459DFF;}
</style>
<g id="Ebene_1">
</g>
<g id="Layer_1_1_">
	<path class="st0" d="M228.5,62L192,113.3l58.3,80.6h-7.4l-54.7-75.3L152.4,168h-7.6l39.4-55.1l-55.4-76.8h7.4l51.9,71.5l33-45.6
		H228.5z"/>
	<path class="st0" d="M290.6,62h-37.3v6H290c22.1,0,35.3,10.4,35.3,29c0,19-12.7,29.4-34.9,29.4l-37.2-0.1V168h6.4v-35.3h30.9
		c26.1,0,40.8-13,40.8-35.8C331.4,74.7,316.7,62,290.6,62z"/>
	<path class="st0" d="M128.6,95.2c-1.7-6.3-4.7-12-8.9-16.9c-4.2-4.9-9.8-8.9-16.8-11.9c-7-3-15.8-4.5-26.4-4.5H37.9l0.1,80h6V68
		h31.1c3,0,6.3,0.2,10,0.5s7.4,1.1,11.1,2.1c3.7,1.1,7.3,2.6,10.7,4.6c3.5,2,6.5,4.8,9.2,8.3s4.8,7.8,6.5,12.9
		c1.6,5.1,2.5,11.2,2.5,18.4c0,9.1-1.4,16.7-4.3,22.8c-2.9,6-6.7,10.9-11.3,14.4c-4.7,3.6-9.8,6.1-15.6,7.7
		c-5.7,1.5-11.4,2.3-17.1,2.3H44l0,0h-6.1l0,0v6h38.4c9.5,0,17.7-1.4,24.6-4.1c6.9-2.7,12.6-6.5,17.1-11.2c4.5-4.8,7.9-10.4,10-16.9
		c2.1-6.5,3.2-13.5,3.2-21C131.2,108.1,130.4,101.6,128.6,95.2z"/>
</g>
<g id="Ebene_3" class="st1">
	<rect x="132.8" y="111.8" class="st2" width="6.4" height="6.4"/>
	<rect x="266.4" y="125.9" class="st3" width="6.2" height="6.2"/>
</g>
<g id="Ebene_4">
</g>
</svg>
