<?xml version="1.0" encoding="utf-8"?>
<!-- Generator: Adobe Illustrator 24.1.3, SVG Export Plug-In . SVG Version: 6.00 Build 0)  -->
<svg version="1.1" id="Layer_1" xmlns="http://www.w3.org/2000/svg" xmlns:xlink="http://www.w3.org/1999/xlink" x="0px" y="0px"
	 viewBox="0 0 367.9 225.9" style="enable-background:new 0 0 367.9 225.9;" xml:space="preserve">
<style type="text/css">
	.st3{fill:none;stroke:#231F20;stroke-width:1.0685;stroke-miterlimit:10;}
	.st4{fill:none;stroke:#231F20;stroke-width:5.75;stroke-miterlimit:10;}
	.st5{fill:none;stroke:#231F20;stroke-width:5.75;stroke-miterlimit:10;}
</style>
<path class="st4" d="M41,141.9V65v0h33.7c3.2,0,6.7,0.2,10.7,0.5c4,0.3,7.9,1.2,11.9,2.2c4,1.2,7.8,2.8,11.4,4.9
	c3.7,2.1,7,5.1,9.8,8.9c2.9,3.7,5.1,8.3,7,13.8c1.7,5.4,2.7,12,2.7,19.6c0,9.7-1.5,17.8-4.6,24.3c-3.1,6.4-7.2,11.6-12.1,15.4
	c-5,3.8-10.5,6.5-16.7,8.2c-6.1,1.6-12.2,2.5-18.3,2.5H37.9h3.5"/>
<line class="st5" x1="132.2" y1="35.9" x2="247" y2="193.9"/>
<line class="st4" x1="148.9" y1="168" x2="224.6" y2="62"/>
<path class="st4" d="M256.5,167.4v-37.8h31.2c26.3,0,41.1-11.9,41.1-32.7c0.1-20.3-14.7-31.9-41-31.9h-33.9"/>
</svg>
