<?xml version="1.0" encoding="utf-8"?>
<!-- Generator: Adobe Illustrator 24.1.3, SVG Export Plug-In . SVG Version: 6.00 Build 0)  -->
<svg version="1.1" id="Layer_1" xmlns="http://www.w3.org/2000/svg" xmlns:xlink="http://www.w3.org/1999/xlink" x="0px" y="0px"
	 viewBox="0 0 367.9 225.9" style="enable-background:new 0 0 367.9 225.9;" xml:space="preserve">
<style type="text/css">
	.st0{fill:#fff;}
	.st1{display:none;}
	.st2{display:inline;fill:#FF1742;}
	.st3{display:inline;fill:#459DFF;}
</style>
<g id="Layer_1_1_">
	<g>
		<polygon class="st0" points="136.2,36.1 128.8,36.1 184.2,112.9 144.8,168 152.4,168 188.2,118.6 242.9,193.9 250.3,193.9 
			192,113.3 228.5,62 221.1,62 188.1,107.6 136.2,36.1 		"/>
	</g>
	<g>
		<path class="st0" d="M290.6,62h-37.3v6H290c22.1,0,35.3,10.4,35.3,29c0,19-12.7,29.4-34.9,29.4l-37.2-0.1V168h6.4v-35.3h30.9
			c26.1,0,40.8-13,40.8-35.8C331.4,74.7,316.7,62,290.6,62L290.6,62z"/>
	</g>
	<g>
		<path class="st0" d="M76.5,61.9H37.9l0.1,80h6V68h31.1c3,0,6.3,0.2,10,0.5c3.7,0.3,7.4,1.1,11.1,2.1c3.7,1.1,7.3,2.6,10.7,4.6
			c3.5,2,6.5,4.8,9.2,8.3c2.7,3.5,4.8,7.8,6.5,12.9c1.6,5.1,2.5,11.2,2.5,18.4c0,9.1-1.4,16.7-4.3,22.8c-2.9,6-6.7,10.9-11.3,14.4
			c-4.7,3.6-9.8,6.1-15.6,7.7c-5.7,1.5-11.4,2.3-17.1,2.3H44h-6.1v6h38.4c9.5,0,17.7-1.4,24.6-4.1s12.6-6.5,17.1-11.2
			c4.5-4.8,7.9-10.4,10-16.9c2.1-6.5,3.2-13.5,3.2-21c0-6.7-0.8-13.2-2.6-19.6c-1.7-6.3-4.7-12-8.9-16.9c-4.2-4.9-9.8-8.9-16.8-11.9
			S87.1,61.9,76.5,61.9L76.5,61.9z"/>
	</g>
</g>
</svg>
