<svg xmlns="http://www.w3.org/2000/svg" width="26" height="22" viewBox="0 0 26 22">
  <path fill="#FFF" d="M24.7790057,8.99129875 C22.133514,14.5003818 15.747284,22 11.7107967,22 C7.73280912,22 7.15756092,13.7305675 4.98548439,8.22676431 C3.91623774,5.5181582 3.22615656,6.14013442 1.22199617,7.50763731 L0,5.97117653 C2.92282418,3.46637587 5.84781502,0.557132269 7.6450594,0.39556629 C9.66871973,0.206544655 10.9145492,1.55503978 11.380381,4.44210766 C11.9957124,8.2362682 12.8558764,14.1255065 14.3573717,14.1255065 C15.527368,14.1255065 18.410109,9.45382096 18.5585252,7.78324986 C18.8217744,5.33758446 16.7136143,5.26366539 14.8838701,6.02714383 C17.779611,-3.21696451 29.8262399,-1.51471381 24.7790057,8.99129875 Z"/>
</svg>
